<svg width="40" height="40" viewBox="0 0 40 40" fill="none" xmlns="http://www.w3.org/2000/svg">
<g filter="url(#filter0_d_203_628)">
<path d="M34.2965 1.08596C31.6324 1.64846 30.0074 3.63284 29.5621 6.87502C29.4059 7.99221 28.9996 11.5547 28.9137 12.5781C28.6715 15.2656 28.4293 17.8828 28.3981 18.086C28.3746 18.211 28.3278 18.7735 28.2809 19.336C28.2418 19.8906 28.1481 20.9844 28.0856 21.7578C28.0153 22.5313 27.9293 23.6016 27.8903 24.1406C27.7418 25.9922 27.5934 26.875 27.3512 27.375C27.0309 28.0547 26.5699 28.5391 25.9528 28.8438C25.4762 29.0781 25.3746 29.1016 24.6871 29.1016C23.9996 29.1016 23.8981 29.0781 23.4215 28.8438C22.1559 28.2188 21.6168 27.0156 21.7965 25.1875C21.9293 23.7188 21.6793 22.7891 20.9371 22C20.6871 21.7344 20.3668 21.5 20.0543 21.3594C19.6168 21.1563 19.4918 21.1328 18.7106 21.1328C17.9606 21.1328 17.8043 21.1563 17.4606 21.3203C16.9059 21.5938 16.3043 22.1953 16.0543 22.711C15.7496 23.3594 15.6481 23.9688 15.4684 26.1328C15.3824 27.211 15.2574 28.2969 15.1949 28.5469C14.8199 29.9766 13.859 30.836 12.5309 30.9219C11.4918 30.9844 10.5309 30.5625 9.96838 29.7891C9.36682 28.961 9.2887 28.2266 9.52307 25.625C9.60901 24.6172 9.71838 23.3672 9.75745 22.8516C9.80432 22.336 9.92932 20.8906 10.0387 19.6485C10.1481 18.3985 10.2887 16.7813 10.3512 16.0547C10.6637 12.2656 10.7731 11.6719 11.2496 10.9766C12.5153 9.13284 15.2184 9.30471 16.234 11.2891C16.4371 11.6953 16.6403 12.6719 16.6403 13.2578C16.6403 14.2188 17.0153 15.1328 17.6481 15.7266C18.1871 16.2344 18.6324 16.4141 19.4606 16.461C20.3199 16.5156 20.8121 16.3985 21.4059 16C22.3121 15.3985 22.734 14.4453 22.8903 12.6953C23.1168 10.0625 23.2106 8.95315 23.2809 8.12502C23.6481 3.83596 23.5934 3.17971 22.859 2.3594C22.7028 2.18752 22.3903 1.96877 22.1637 1.86721C21.7653 1.67971 21.7262 1.67971 19.3356 1.68752C15.0934 1.70315 13.2496 2.1094 10.1715 3.71096C6.6012 5.57034 3.89026 8.3594 2.10901 11.9922C1.33557 13.5703 0.921511 14.7891 0.530886 16.6406C0.421511 17.1797 0.249636 18.6172 0.187136 19.5313C0.109011 20.7891 0.359011 23.1406 0.749636 24.6953C2.36682 31.2344 6.83557 36.1719 12.984 38.2031C18.0231 39.875 23.3903 39.4531 28.0231 37.0313C29.7574 36.125 31.2028 35.0391 32.6168 33.5781C34.1246 32.0313 35.0621 30.6953 36.0153 28.7344C37.3199 26.0625 38.0309 22.8985 38.4762 17.8125C38.6324 15.9531 38.7965 14.0625 38.9449 12.4219C39.0153 11.6719 39.1168 10.4531 39.1793 9.72659C39.4528 6.37502 39.609 4.59377 39.6949 3.93752C39.7809 3.25002 39.7731 3.21877 39.5856 2.84377C39.1403 1.97659 38.1403 1.38284 36.6324 1.08596C35.6871 0.906273 35.1637 0.906273 34.2965 1.08596Z" fill="#810EA8"/>
</g>
<defs>
<filter id="filter0_d_203_628" x="-3.82715" y="0.951172" width="47.5752" height="46.2593" filterUnits="userSpaceOnUse" color-interpolation-filters="sRGB">
<feFlood flood-opacity="0" result="BackgroundImageFix"/>
<feColorMatrix in="SourceAlpha" type="matrix" values="0 0 0 0 0 0 0 0 0 0 0 0 0 0 0 0 0 0 127 0" result="hardAlpha"/>
<feOffset dy="4"/>
<feGaussianBlur stdDeviation="2"/>
<feComposite in2="hardAlpha" operator="out"/>
<feColorMatrix type="matrix" values="0 0 0 0 0 0 0 0 0 0 0 0 0 0 0 0 0 0 0.25 0"/>
<feBlend mode="normal" in2="BackgroundImageFix" result="effect1_dropShadow_203_628"/>
<feBlend mode="normal" in="SourceGraphic" in2="effect1_dropShadow_203_628" result="shape"/>
</filter>
</defs>
</svg>
