<svg width="20" height="21" viewBox="0 0 20 21" fill="none" xmlns="http://www.w3.org/2000/svg">
<g clip-path="url(#clip0_201_596)">
<path d="M7.59981 0.899994C7.083 0.899994 6.64209 1.2377 6.47481 1.69999H4.48731C4.44656 1.68927 4.40437 1.68505 4.36231 1.68749C4.34961 1.69104 4.33709 1.69521 4.32481 1.69999H1.9998C1.34182 1.69999 0.799805 2.24201 0.799805 2.89999V16.9C0.799805 17.558 1.34182 18.1 1.9998 18.1H9.19981C9.19981 18.758 9.74182 19.3 10.3998 19.3H17.5998C18.2578 19.3 18.7998 18.758 18.7998 18.1V8.89999C18.7998 8.242 18.2578 7.69999 17.5998 7.69999H14.3998V2.89999C14.3998 2.24201 13.8578 1.69999 13.1998 1.69999H8.72481C8.55752 1.2377 8.11661 0.899994 7.59981 0.899994ZM7.59981 1.69999C7.79937 1.69999 7.95311 1.83737 7.98731 2.02499C7.97786 2.07455 7.97786 2.12544 7.98731 2.17499C7.95311 2.36261 7.79937 2.49999 7.59981 2.49999C7.38687 2.49999 7.21798 2.3446 7.19981 2.13749C7.20039 2.125 7.20039 2.11249 7.19981 2.09999C7.19981 1.87434 7.37415 1.69999 7.59981 1.69999ZM1.9998 2.49999H3.9998V3.69999C3.9998 4.35798 4.54182 4.89999 5.19981 4.89999H9.99981C10.6578 4.89999 11.1998 4.35798 11.1998 3.69999V2.49999H13.1998C13.4258 2.49999 13.5998 2.67398 13.5998 2.89999V7.69999H10.3998C9.74182 7.69999 9.19981 8.242 9.19981 8.89999V17.3H1.9998C1.77379 17.3 1.5998 17.126 1.5998 16.9V2.89999C1.5998 2.67398 1.77379 2.49999 1.9998 2.49999ZM4.79981 2.49999H6.47481C6.64209 2.96229 7.083 3.29999 7.59981 3.29999C8.11661 3.29999 8.55752 2.96229 8.72481 2.49999H10.3998V3.69999C10.3998 3.92601 10.2258 4.09999 9.99981 4.09999H5.19981C4.97379 4.09999 4.79981 3.92601 4.79981 3.69999V2.49999ZM5.19981 6.49999V8.89999H4.39981V7.69999H3.5998V8.89999H2.7998V9.69999H8.39981V8.89999H7.59981V7.29999H6.79981V8.89999H5.99981V6.49999H5.19981ZM10.3998 8.49999H13.9248H14.0873H17.5998C17.8258 8.49999 17.9998 8.67398 17.9998 8.89999V18.1C17.9998 18.326 17.8258 18.5 17.5998 18.5H10.3998C10.1738 18.5 9.99981 18.326 9.99981 18.1V17.775C10.0109 17.7214 10.0109 17.6661 9.99981 17.6125V8.89999C9.99981 8.67398 10.1738 8.49999 10.3998 8.49999ZM11.1248 9.29999C11.0322 9.31767 10.9488 9.36749 10.8893 9.44068C10.8298 9.51387 10.7981 9.60571 10.7998 9.69999V11.3C10.7998 11.4061 10.842 11.5078 10.917 11.5828C10.992 11.6578 11.0937 11.7 11.1998 11.7H16.7998C16.9059 11.7 17.0076 11.6578 17.0826 11.5828C17.1576 11.5078 17.1998 11.4061 17.1998 11.3V9.69999C17.1998 9.59391 17.1576 9.49217 17.0826 9.41716C17.0076 9.34215 16.9059 9.3 16.7998 9.29999H11.1998C11.1873 9.29941 11.1748 9.29941 11.1623 9.29999C11.1498 9.29941 11.1373 9.29941 11.1248 9.29999ZM11.5998 10.1H16.3998V10.9H11.5998V10.1ZM5.19981 11.3C3.87906 11.3 2.7998 12.3792 2.7998 13.7C2.7998 15.0207 3.87906 16.1 5.19981 16.1C6.52055 16.1 7.59981 15.0207 7.59981 13.7C7.59981 12.3792 6.52055 11.3 5.19981 11.3ZM5.19981 12.1V13.7H6.79981C6.79981 14.5884 6.0882 15.3 5.19981 15.3C4.31141 15.3 3.5998 14.5884 3.5998 13.7C3.5998 12.8116 4.31141 12.1 5.19981 12.1ZM11.1998 12.5C10.979 12.5 10.7998 12.6792 10.7998 12.9V13.3C10.7998 13.5208 10.979 13.7 11.1998 13.7H11.9998C12.2206 13.7 12.3998 13.5208 12.3998 13.3V12.9C12.3998 12.6792 12.2206 12.5 11.9998 12.5H11.1998ZM13.5998 12.5C13.379 12.5 13.1998 12.6792 13.1998 12.9V13.3C13.1998 13.5208 13.379 13.7 13.5998 13.7H14.3998C14.6206 13.7 14.7998 13.5208 14.7998 13.3V12.9C14.7998 12.6792 14.6206 12.5 14.3998 12.5H13.5998ZM15.9998 12.5C15.779 12.5 15.5998 12.6792 15.5998 12.9V13.3C15.5998 13.5208 15.779 13.7 15.9998 13.7H16.7998C17.0206 13.7 17.1998 13.5208 17.1998 13.3V12.9C17.1998 12.6792 17.0206 12.5 16.7998 12.5H15.9998ZM11.1998 14.5C10.979 14.5 10.7998 14.6792 10.7998 14.9V15.3C10.7998 15.5208 10.979 15.7 11.1998 15.7H11.9998C12.2206 15.7 12.3998 15.5208 12.3998 15.3V14.9C12.3998 14.6792 12.2206 14.5 11.9998 14.5H11.1998ZM13.5998 14.5C13.379 14.5 13.1998 14.6792 13.1998 14.9V15.3C13.1998 15.5208 13.379 15.7 13.5998 15.7H14.3998C14.6206 15.7 14.7998 15.5208 14.7998 15.3V14.9C14.7998 14.6792 14.6206 14.5 14.3998 14.5H13.5998ZM15.9998 14.5C15.779 14.5 15.5998 14.6792 15.5998 14.9V15.3C15.5998 15.5208 15.779 15.7 15.9998 15.7H16.7998C17.0206 15.7 17.1998 15.5208 17.1998 15.3V14.9C17.1998 14.6792 17.0206 14.5 16.7998 14.5H15.9998ZM11.1998 16.5C10.979 16.5 10.7998 16.6792 10.7998 16.9V17.3C10.7998 17.5208 10.979 17.7 11.1998 17.7H11.9998C12.2206 17.7 12.3998 17.5208 12.3998 17.3V16.9C12.3998 16.6792 12.2206 16.5 11.9998 16.5H11.1998ZM13.5998 16.5C13.379 16.5 13.1998 16.6792 13.1998 16.9V17.3C13.1998 17.5208 13.379 17.7 13.5998 17.7H14.3998C14.6206 17.7 14.7998 17.5208 14.7998 17.3V16.9C14.7998 16.6792 14.6206 16.5 14.3998 16.5H13.5998ZM15.9998 16.5C15.779 16.5 15.5998 16.6792 15.5998 16.9V17.3C15.5998 17.5208 15.779 17.7 15.9998 17.7H16.7998C17.0206 17.7 17.1998 17.5208 17.1998 17.3V16.9C17.1998 16.6792 17.0206 16.5 16.7998 16.5H15.9998Z" fill="#BFBFBF"/>
</g>
<defs>
<clipPath id="clip0_201_596">
<rect width="20" height="20" fill="white" transform="translate(0 0.5)"/>
</clipPath>
</defs>
</svg>
