<svg width="20" height="21" viewBox="0 0 20 21" fill="none" xmlns="http://www.w3.org/2000/svg">
<path d="M16.5557 16.3072V15.4766C16.5557 15.3719 16.5142 15.2714 16.4402 15.1973C16.3662 15.1232 16.2658 15.0814 16.161 15.0813V9.54666C16.2129 9.54666 16.2643 9.53643 16.3123 9.51656C16.3603 9.4967 16.4038 9.46758 16.4406 9.43086C16.4773 9.39415 16.5064 9.35057 16.5262 9.3026C16.5461 9.25464 16.5563 9.20323 16.5563 9.15131V8.36061H17.1478C17.6042 8.36061 17.9884 8.0573 18.1051 7.60542C18.2234 7.14212 18.0267 6.68098 17.615 6.45582L11.6421 3.18799C11.21 2.95017 10.7247 2.82547 10.2314 2.82547C9.7381 2.82547 9.25281 2.95017 8.82062 3.18799L2.85022 6.45551C2.43792 6.68098 2.24088 7.14274 2.35917 7.60542C2.47467 8.05699 2.85886 8.36061 3.31656 8.36061H3.90705V9.15131C3.90705 9.25605 3.94861 9.35652 4.02262 9.43065C4.09662 9.50477 4.19701 9.5465 4.30174 9.54666V15.0813C4.1969 15.0813 4.09635 15.1229 4.02222 15.1971C3.94808 15.2712 3.90643 15.3718 3.90643 15.4766V16.3072C3.46033 16.3989 3.05948 16.6416 2.77145 16.9944C2.48342 17.3473 2.32581 17.7886 2.3252 18.2441L2.3252 18.6394H18.1376V18.2441C18.1369 17.7885 17.9792 17.3471 17.6911 16.9943C17.4029 16.6414 17.0019 16.3988 16.5557 16.3072ZM4.69643 15.872H7.06798V16.2673H4.69767L4.69643 15.872ZM7.46329 15.0813V9.54666C7.5152 9.54666 7.56661 9.53643 7.61457 9.51656C7.66253 9.4967 7.70611 9.46758 7.74282 9.43086C7.77952 9.39415 7.80864 9.35057 7.82851 9.3026C7.84838 9.25464 7.8586 9.20323 7.8586 9.15131V8.36061H8.25484V9.15131C8.25484 9.20323 8.26506 9.25464 8.28493 9.3026C8.30479 9.35057 8.33391 9.39415 8.37062 9.43086C8.40733 9.46758 8.45091 9.4967 8.49887 9.51656C8.54683 9.53643 8.59823 9.54666 8.65015 9.54666V15.0813C8.5453 15.0813 8.44476 15.1229 8.37062 15.1971C8.29649 15.2712 8.25484 15.3718 8.25484 15.4766V16.2673H7.85953V15.4766C7.85953 15.3718 7.81792 15.2713 7.74385 15.1972C7.66978 15.123 7.56932 15.0813 7.46453 15.0813H7.46329ZM9.43984 15.0813V9.54666H11.0211V15.0813H9.43984ZM11.4173 8.75565H9.04546V8.3603H11.4173V8.75565ZM9.04546 15.872H11.4173V16.2673H9.04546V15.872ZM11.8123 15.0813V9.54666C11.8642 9.54666 11.9156 9.53643 11.9636 9.51656C12.0116 9.4967 12.0551 9.46758 12.0918 9.43086C12.1285 9.39415 12.1577 9.35057 12.1775 9.3026C12.1974 9.25464 12.2076 9.20323 12.2076 9.15131V8.36061H12.6029V9.15131C12.6029 9.20323 12.6132 9.25464 12.633 9.3026C12.6529 9.35057 12.682 9.39415 12.7187 9.43086C12.7554 9.46758 12.799 9.4967 12.847 9.51656C12.8949 9.53643 12.9463 9.54666 12.9982 9.54666V15.0813C12.8934 15.0813 12.7928 15.1229 12.7187 15.1971C12.6446 15.2712 12.6029 15.3718 12.6029 15.4766V16.2673H12.2079V15.4766C12.2079 15.3718 12.1663 15.2712 12.0921 15.1971C12.018 15.1229 11.9175 15.0813 11.8126 15.0813H11.8123ZM13.3936 15.872H15.7651V16.2673H13.3936V15.872ZM15.3701 15.0813H13.7889V9.54666H15.3701V15.0813ZM15.7654 8.75565H13.3936V8.3603H15.7651L15.7654 8.75565ZM3.31532 7.5699C3.18561 7.5699 3.14052 7.46952 3.12508 7.4096C3.11427 7.3676 3.09018 7.22428 3.22885 7.14953L9.20018 3.88171C9.51609 3.70769 9.87088 3.61644 10.2315 3.61644C10.5922 3.61644 10.947 3.70769 11.2629 3.88171L17.2339 7.14953C17.3726 7.22521 17.3485 7.3676 17.3377 7.4096C17.3226 7.46952 17.2759 7.5699 17.1474 7.5699H3.31532V7.5699ZM7.06922 8.36061V8.75565H4.69767V8.3603L7.06922 8.36061ZM5.09267 9.54666H6.67391V15.0813H5.09267V9.54666ZM3.18407 17.8487C3.26602 17.6177 3.41744 17.4177 3.61754 17.2761C3.81764 17.1346 4.05664 17.0584 4.30174 17.058H16.161C16.4062 17.0583 16.6452 17.1345 16.8454 17.276C17.0456 17.4176 17.197 17.6177 17.279 17.8487H3.18407ZM10.2314 6.77889C10.4659 6.77889 10.6952 6.70933 10.8903 6.57901C11.0853 6.44868 11.2373 6.26345 11.327 6.04672C11.4168 5.83 11.4403 5.59152 11.3945 5.36145C11.3488 5.13138 11.2358 4.92005 11.07 4.75417C10.9041 4.5883 10.6928 4.47534 10.4627 4.42958C10.2327 4.38381 9.99425 4.4073 9.77755 4.49707C9.56085 4.58684 9.37563 4.73886 9.24532 4.9339C9.11501 5.12895 9.04546 5.35826 9.04546 5.59284C9.04578 5.9073 9.17083 6.20879 9.39317 6.43114C9.6155 6.6535 9.91696 6.77857 10.2314 6.77889V6.77889ZM10.2314 5.19749C10.3096 5.19749 10.386 5.22068 10.451 5.26412C10.516 5.30756 10.5667 5.3693 10.5966 5.44155C10.6265 5.51379 10.6344 5.59328 10.6191 5.66997C10.6038 5.74666 10.5662 5.8171 10.5109 5.87239C10.4556 5.92769 10.3852 5.96534 10.3085 5.98059C10.2318 5.99585 10.1523 5.98802 10.0801 5.9581C10.0079 5.92817 9.94613 5.8775 9.9027 5.81248C9.85926 5.74747 9.83607 5.67103 9.83607 5.59284C9.83624 5.48806 9.87795 5.38763 9.95206 5.31357C10.0262 5.23952 10.1266 5.19788 10.2314 5.1978V5.19749Z" fill="#BFBFBF"/>
</svg>
