<svg width="28" height="21" viewBox="0 0 28 21" fill="none" xmlns="http://www.w3.org/2000/svg">
<path d="M0.216797 3.70986C0.216797 2.8258 0.582691 1.97796 1.23399 1.35284C1.88528 0.727715 2.76863 0.376526 3.6897 0.376526H24.5271C25.4482 0.376526 26.3315 0.727715 26.9828 1.35284C27.6341 1.97796 28 2.8258 28 3.70986V5.37653H0.216797V3.70986ZM0.216797 8.70986V17.0432C0.216797 17.9272 0.582691 18.7751 1.23399 19.4002C1.88528 20.0253 2.76863 20.3765 3.6897 20.3765H24.5271C25.4482 20.3765 26.3315 20.0253 26.9828 19.4002C27.6341 18.7751 28 17.9272 28 17.0432V8.70986H0.216797ZM5.42615 12.0432H7.1626C7.62313 12.0432 8.06481 12.2188 8.39045 12.5313C8.7161 12.8439 8.89905 13.2678 8.89905 13.7099V15.3765C8.89905 15.8186 8.7161 16.2425 8.39045 16.555C8.06481 16.8676 7.62313 17.0432 7.1626 17.0432H5.42615C4.96561 17.0432 4.52394 16.8676 4.19829 16.555C3.87264 16.2425 3.6897 15.8186 3.6897 15.3765V13.7099C3.6897 13.2678 3.87264 12.8439 4.19829 12.5313C4.52394 12.2188 4.96561 12.0432 5.42615 12.0432V12.0432Z" fill="white"/>
</svg>
