<svg width="20" height="21" viewBox="0 0 20 21" fill="none" xmlns="http://www.w3.org/2000/svg">
<path fill-rule="evenodd" clip-rule="evenodd" d="M10.8333 18C10.8333 18.4609 11.2058 18.8334 11.6667 18.8334H14.1667C15.0508 18.8334 15.8983 18.4825 16.5233 17.8575C17.1483 17.2325 17.5 16.3842 17.5 15.5C17.5 15.0217 17.5 14.6667 17.5 14.6667C17.5 14.2067 17.1267 13.8334 16.6667 13.8334H11.6667C11.2058 13.8334 10.8333 14.2067 10.8333 14.6667V18ZM8.33333 18.8334C8.79333 18.8334 9.16667 18.4609 9.16667 18V9.66669C9.16667 9.20669 8.79333 8.83335 8.33333 8.83335H3.33333C2.8725 8.83335 2.5 9.20669 2.5 9.66669V15.5C2.5 16.3842 2.85083 17.2325 3.47583 17.8575C4.10083 18.4825 4.94917 18.8334 5.83333 18.8334H8.33333ZM15.8333 15.5H12.5V17.1667H14.1667C14.6083 17.1667 15.0325 16.9917 15.345 16.6792C15.6575 16.3667 15.8333 15.9425 15.8333 15.5ZM7.5 17.1667V10.5H4.16667V15.5C4.16667 15.9425 4.34167 16.3667 4.655 16.6792C4.9675 16.9917 5.39083 17.1667 5.83333 17.1667H7.5ZM11.6667 2.16669C11.2058 2.16669 10.8333 2.54002 10.8333 3.00002V11.3334C10.8333 11.7942 11.2058 12.1667 11.6667 12.1667H16.6667C17.1267 12.1667 17.5 11.7942 17.5 11.3334V5.50002C17.5 4.61669 17.1483 3.76835 16.5233 3.14335C15.8983 2.51835 15.0508 2.16669 14.1667 2.16669H11.6667ZM12.5 3.83335V10.5H15.8333V5.50002C15.8333 5.05835 15.6575 4.63419 15.345 4.32169C15.0325 4.00919 14.6083 3.83335 14.1667 3.83335H12.5ZM9.16667 3.00002C9.16667 2.54002 8.79333 2.16669 8.33333 2.16669H5.83333C4.94917 2.16669 4.10083 2.51835 3.47583 3.14335C2.85083 3.76835 2.5 4.61669 2.5 5.50002V6.33335C2.5 6.79419 2.8725 7.16669 3.33333 7.16669H8.33333C8.79333 7.16669 9.16667 6.79419 9.16667 6.33335V3.00002ZM7.5 3.83335H5.83333C5.39083 3.83335 4.9675 4.00919 4.655 4.32169C4.34167 4.63419 4.16667 5.05835 4.16667 5.50002H7.5V3.83335Z" fill="#BFBFBF"/>
</svg>
