<svg width="20" height="21" viewBox="0 0 20 21" fill="none" xmlns="http://www.w3.org/2000/svg">
<path d="M15.833 1.33334H4.16634C3.28229 1.33334 2.43444 1.68453 1.80932 2.30965C1.1842 2.93478 0.833008 3.78262 0.833008 4.66668V10.5C0.833008 10.721 0.920805 10.933 1.07709 11.0893C1.23337 11.2455 1.44533 11.3333 1.66634 11.3333H5.83301V18.8333C5.83261 18.9927 5.87794 19.1489 5.96361 19.2833C6.04927 19.4177 6.17169 19.5247 6.31634 19.5917C6.46133 19.6584 6.62244 19.6821 6.78051 19.66C6.93858 19.6378 7.08696 19.5707 7.20801 19.4667L9.58301 17.4333L11.958 19.4667C12.109 19.5958 12.301 19.6667 12.4997 19.6667C12.6983 19.6667 12.8904 19.5958 13.0413 19.4667L15.4163 17.4333L17.7913 19.4667C17.9423 19.5958 18.1344 19.6667 18.333 19.6667C18.4536 19.6658 18.5727 19.6403 18.683 19.5917C18.8277 19.5247 18.9501 19.4177 19.0357 19.2833C19.1214 19.1489 19.1667 18.9927 19.1663 18.8333V4.66668C19.1663 3.78262 18.8152 2.93478 18.19 2.30965C17.5649 1.68453 16.7171 1.33334 15.833 1.33334ZM2.49967 9.66668V4.66668C2.49967 4.22465 2.67527 3.80073 2.98783 3.48817C3.30039 3.1756 3.72431 3.00001 4.16634 3.00001C4.60837 3.00001 5.03229 3.1756 5.34485 3.48817C5.65741 3.80073 5.83301 4.22465 5.83301 4.66668V9.66668H2.49967ZM17.4997 17.025L15.958 15.7C15.8071 15.5709 15.615 15.5 15.4163 15.5C15.2177 15.5 15.0256 15.5709 14.8747 15.7L12.4997 17.7333L10.1247 15.7C9.97373 15.5709 9.78164 15.5 9.58301 15.5C9.38438 15.5 9.19229 15.5709 9.04134 15.7L7.49968 17.025V4.66668C7.49864 4.08124 7.34343 3.50641 7.04967 3.00001H15.833C16.275 3.00001 16.699 3.1756 17.0115 3.48817C17.3241 3.80073 17.4997 4.22465 17.4997 4.66668V17.025ZM15.833 5.50001C15.833 5.72102 15.7452 5.93299 15.5889 6.08927C15.4327 6.24555 15.2207 6.33334 14.9997 6.33334H9.99968C9.77866 6.33334 9.5667 6.24555 9.41042 6.08927C9.25414 5.93299 9.16634 5.72102 9.16634 5.50001C9.16634 5.279 9.25414 5.06704 9.41042 4.91075C9.5667 4.75447 9.77866 4.66668 9.99968 4.66668H14.9997C15.2207 4.66668 15.4327 4.75447 15.5889 4.91075C15.7452 5.06704 15.833 5.279 15.833 5.50001ZM15.833 8.83334C15.833 9.05436 15.7452 9.26632 15.5889 9.4226C15.4327 9.57888 15.2207 9.66668 14.9997 9.66668H9.99968C9.77866 9.66668 9.5667 9.57888 9.41042 9.4226C9.25414 9.26632 9.16634 9.05436 9.16634 8.83334C9.16634 8.61233 9.25414 8.40037 9.41042 8.24409C9.5667 8.08781 9.77866 8.00001 9.99968 8.00001H14.9997C15.2207 8.00001 15.4327 8.08781 15.5889 8.24409C15.7452 8.40037 15.833 8.61233 15.833 8.83334ZM15.833 12.1667C15.833 12.3877 15.7452 12.5997 15.5889 12.7559C15.4327 12.9122 15.2207 13 14.9997 13H9.99968C9.77866 13 9.5667 12.9122 9.41042 12.7559C9.25414 12.5997 9.16634 12.3877 9.16634 12.1667C9.16634 11.9457 9.25414 11.7337 9.41042 11.5774C9.5667 11.4211 9.77866 11.3333 9.99968 11.3333H14.9997C15.2207 11.3333 15.4327 11.4211 15.5889 11.5774C15.7452 11.7337 15.833 11.9457 15.833 12.1667Z" fill="#BFBFBF"/>
</svg>
