<svg width="20" height="20" viewBox="0 0 20 20" fill="none" xmlns="http://www.w3.org/2000/svg">
<path d="M12.7001 18.5584H12.5918C8.89176 18.5584 7.10843 17.1 6.80009 13.8334C6.76676 13.4917 7.01676 13.1834 7.36676 13.15C7.70009 13.1167 8.01676 13.375 8.05009 13.7167C8.29176 16.3334 9.52509 17.3084 12.6001 17.3084H12.7084C16.1001 17.3084 17.3001 16.1084 17.3001 12.7167V7.28336C17.3001 3.8917 16.1001 2.6917 12.7084 2.6917H12.6001C9.50843 2.6917 8.27509 3.68336 8.05009 6.35003C8.00843 6.6917 7.71676 6.95003 7.36676 6.9167C7.01676 6.8917 6.76676 6.58336 6.79176 6.2417C7.07509 2.92503 8.86676 1.4417 12.5918 1.4417H12.7001C16.7918 1.4417 18.5418 3.1917 18.5418 7.28336V12.7167C18.5418 16.8084 16.7918 18.5584 12.7001 18.5584Z" fill="#EF4444"/>
<path d="M12.4999 10.625H3.0166C2.67493 10.625 2.3916 10.3417 2.3916 10C2.3916 9.65833 2.67493 9.375 3.0166 9.375H12.4999C12.8416 9.375 13.1249 9.65833 13.1249 10C13.1249 10.3417 12.8416 10.625 12.4999 10.625Z" fill="#EF4444"/>
<path d="M4.87454 13.4167C4.71621 13.4167 4.55788 13.3583 4.43288 13.2333L1.64121 10.4417C1.39954 10.2 1.39954 9.79999 1.64121 9.55832L4.43288 6.76665C4.67454 6.52499 5.07454 6.52499 5.31621 6.76665C5.55788 7.00832 5.55788 7.40832 5.31621 7.64999L2.96621 9.99999L5.31621 12.35C5.55788 12.5917 5.55788 12.9917 5.31621 13.2333C5.19954 13.3583 5.03288 13.4167 4.87454 13.4167Z" fill="#EF4444"/>
</svg>
