<svg width="17" height="21" viewBox="0 0 17 21" fill="none" xmlns="http://www.w3.org/2000/svg">
<path d="M0.787598 16.6612H16.1688" stroke="#091E46" stroke-linecap="round" stroke-linejoin="round"/>
<path d="M1.74854 9.93192C1.74854 6.21543 4.76134 3.20262 8.47783 3.20262V3.20262C12.1943 3.20262 15.2071 6.21543 15.2071 9.93192V16.6612H1.74854V9.93192Z" stroke="#091E46" stroke-linecap="round" stroke-linejoin="round"/>
<path d="M6.81237 16.6612V16.1612C6.63388 16.1612 6.46893 16.2563 6.37956 16.4108L6.81237 16.6612ZM10.1433 16.6612L10.5761 16.4108C10.4867 16.2563 10.3218 16.1612 10.1433 16.1612V16.6612ZM7.05518 17.6224C7.05518 17.3625 7.12444 17.1202 7.24518 16.9115L6.37956 16.4108C6.17315 16.7676 6.05518 17.182 6.05518 17.6224H7.05518ZM8.47783 19.0451C7.69212 19.0451 7.05518 18.4082 7.05518 17.6224H6.05518C6.05518 18.9604 7.13984 20.0451 8.47783 20.0451V19.0451ZM9.90049 17.6224C9.90049 18.4082 9.26354 19.0451 8.47783 19.0451V20.0451C9.81583 20.0451 10.9005 18.9604 10.9005 17.6224H9.90049ZM9.71048 16.9115C9.83123 17.1202 9.90049 17.3625 9.90049 17.6224H10.9005C10.9005 17.182 10.7825 16.7676 10.5761 16.4108L9.71048 16.9115ZM10.1433 16.1612H6.81237V17.1612H10.1433V16.1612Z" fill="#091E46"/>
<circle cx="12.4568" cy="3.30943" r="3.04421" fill="#FA5F1C"/>
</svg>
