<svg width="25" height="25" viewBox="0 0 25 25" fill="none" xmlns="http://www.w3.org/2000/svg">
<path d="M0.5 1.02864C0.5 0.75583 0.608374 0.494191 0.801283 0.301283C0.994191 0.108375 1.25583 0 1.52864 0H2.29395C3.5969 0 4.37867 0.876404 4.82442 1.69109C5.12204 2.23421 5.33737 2.86374 5.50606 3.4343C5.55169 3.4307 5.59745 3.42887 5.64322 3.42881H22.7845C23.9229 3.42881 24.7458 4.5178 24.4331 5.61365L21.926 14.4038C21.7012 15.1922 21.2256 15.8859 20.5713 16.3799C19.9169 16.8738 19.1195 17.1411 18.2996 17.1413H10.1418C9.31546 17.1413 8.51197 16.87 7.85483 16.369C7.1977 15.8679 6.72329 15.165 6.50453 14.3681L5.46218 10.5662L3.73405 4.73999L3.73268 4.72902C3.51872 3.95136 3.31848 3.22308 3.01949 2.67996C2.73284 2.15192 2.50243 2.05729 2.29533 2.05729H1.52864C1.25583 2.05729 0.994191 1.94891 0.801283 1.756C0.608374 1.5631 0.5 1.30146 0.5 1.02864ZM7.45774 10.067L8.48776 13.8236C8.69349 14.567 9.36965 15.084 10.1418 15.084H18.2996C18.6723 15.084 19.0348 14.9626 19.3323 14.7381C19.6297 14.5137 19.846 14.1984 19.9482 13.8401L22.3306 5.4861H6.10268L7.43854 9.9943L7.45774 10.067Z" fill="white"/>
<path d="M12.157 21.2587C12.157 21.9862 11.868 22.6839 11.3536 23.1983C10.8392 23.7127 10.1415 24.0017 9.41395 24.0017C8.68645 24.0017 7.98874 23.7127 7.47432 23.1983C6.9599 22.6839 6.6709 21.9862 6.6709 21.2587C6.6709 20.5312 6.9599 19.8335 7.47432 19.319C7.98874 18.8046 8.68645 18.5156 9.41395 18.5156C10.1415 18.5156 10.8392 18.8046 11.3536 19.319C11.868 19.8335 12.157 20.5312 12.157 21.2587V21.2587ZM10.0997 21.2587C10.0997 21.0768 10.0275 20.9024 9.89886 20.7738C9.77025 20.6452 9.59582 20.5729 9.41395 20.5729C9.23207 20.5729 9.05765 20.6452 8.92904 20.7738C8.80044 20.9024 8.72819 21.0768 8.72819 21.2587C8.72819 21.4406 8.80044 21.615 8.92904 21.7436C9.05765 21.8722 9.23207 21.9444 9.41395 21.9444C9.59582 21.9444 9.77025 21.8722 9.89886 21.7436C10.0275 21.615 10.0997 21.4406 10.0997 21.2587Z" fill="white"/>
<path d="M21.7576 21.2587C21.7576 21.9862 21.4686 22.6839 20.9542 23.1983C20.4397 23.7127 19.742 24.0017 19.0145 24.0017C18.287 24.0017 17.5893 23.7127 17.0749 23.1983C16.5605 22.6839 16.2715 21.9862 16.2715 21.2587C16.2715 20.5312 16.5605 19.8335 17.0749 19.319C17.5893 18.8046 18.287 18.5156 19.0145 18.5156C19.742 18.5156 20.4397 18.8046 20.9542 19.319C21.4686 19.8335 21.7576 20.5312 21.7576 21.2587V21.2587ZM19.7003 21.2587C19.7003 21.0768 19.628 20.9024 19.4994 20.7738C19.3708 20.6452 19.1964 20.5729 19.0145 20.5729C18.8327 20.5729 18.6582 20.6452 18.5296 20.7738C18.401 20.9024 18.3288 21.0768 18.3288 21.2587C18.3288 21.4406 18.401 21.615 18.5296 21.7436C18.6582 21.8722 18.8327 21.9444 19.0145 21.9444C19.1964 21.9444 19.3708 21.8722 19.4994 21.7436C19.628 21.615 19.7003 21.4406 19.7003 21.2587Z" fill="white"/>
</svg>
