<svg width="20" height="21" viewBox="0 0 20 21" fill="none" xmlns="http://www.w3.org/2000/svg">
<path d="M0 0.857203C0 0.629859 0.0903121 0.411826 0.251069 0.251069C0.411825 0.0903121 0.629858 0 0.857203 0H1.49496C2.58075 0 3.23223 0.730337 3.60368 1.40924C3.8517 1.86184 4.03114 2.38645 4.17172 2.86192C4.20974 2.85891 4.24787 2.85739 4.28601 2.85734H18.5704C19.5191 2.85734 20.2048 3.76484 19.9443 4.67804L17.855 12.0031C17.6676 12.6601 17.2713 13.2382 16.7261 13.6499C16.1808 14.0615 15.5162 14.2843 14.833 14.2844H8.03485C7.34622 14.2845 6.67664 14.0583 6.12903 13.6408C5.58141 13.2233 5.18608 12.6375 5.00378 11.9734L4.13515 8.80519L2.69505 3.94999L2.6939 3.94085C2.5156 3.2928 2.34874 2.6859 2.09958 2.2333C1.8607 1.79327 1.66869 1.71441 1.4961 1.71441H0.857203C0.629858 1.71441 0.411825 1.62409 0.251069 1.46334C0.0903121 1.30258 0 1.08455 0 0.857203ZM5.79812 8.38916L6.65647 11.5197C6.82791 12.1391 7.39137 12.57 8.03485 12.57H14.833C15.1436 12.57 15.4457 12.4688 15.6936 12.2818C15.9414 12.0947 16.1216 11.832 16.2068 11.5334L18.1921 4.57175H4.6689L5.78212 8.32858L5.79812 8.38916Z" fill="#BFBFBF"/>
<path d="M9.71433 17.7155C9.71433 18.3218 9.4735 18.9032 9.04481 19.3319C8.61613 19.7606 8.0347 20.0014 7.42845 20.0014C6.8222 20.0014 6.24078 19.7606 5.8121 19.3319C5.38341 18.9032 5.14258 18.3218 5.14258 17.7155C5.14258 17.1093 5.38341 16.5279 5.8121 16.0992C6.24078 15.6705 6.8222 15.4297 7.42845 15.4297C8.0347 15.4297 8.61613 15.6705 9.04481 16.0992C9.4735 16.5279 9.71433 17.1093 9.71433 17.7155V17.7155ZM7.99992 17.7155C7.99992 17.564 7.93971 17.4186 7.83254 17.3114C7.72537 17.2043 7.58002 17.1441 7.42845 17.1441C7.27689 17.1441 7.13153 17.2043 7.02436 17.3114C6.91719 17.4186 6.85698 17.564 6.85698 17.7155C6.85698 17.8671 6.91719 18.0125 7.02436 18.1196C7.13153 18.2268 7.27689 18.287 7.42845 18.287C7.58002 18.287 7.72537 18.2268 7.83254 18.1196C7.93971 18.0125 7.99992 17.8671 7.99992 17.7155Z" fill="#BFBFBF"/>
<path d="M17.7153 17.7155C17.7153 18.3218 17.4745 18.9032 17.0458 19.3319C16.6171 19.7606 16.0357 20.0014 15.4294 20.0014C14.8232 20.0014 14.2418 19.7606 13.8131 19.3319C13.3844 18.9032 13.1436 18.3218 13.1436 17.7155C13.1436 17.1093 13.3844 16.5279 13.8131 16.0992C14.2418 15.6705 14.8232 15.4297 15.4294 15.4297C16.0357 15.4297 16.6171 15.6705 17.0458 16.0992C17.4745 16.5279 17.7153 17.1093 17.7153 17.7155V17.7155ZM16.0009 17.7155C16.0009 17.564 15.9407 17.4186 15.8335 17.3114C15.7263 17.2043 15.581 17.1441 15.4294 17.1441C15.2779 17.1441 15.1325 17.2043 15.0253 17.3114C14.9182 17.4186 14.858 17.564 14.858 17.7155C14.858 17.8671 14.9182 18.0125 15.0253 18.1196C15.1325 18.2268 15.2779 18.287 15.4294 18.287C15.581 18.287 15.7263 18.2268 15.8335 18.1196C15.9407 18.0125 16.0009 17.8671 16.0009 17.7155Z" fill="#BFBFBF"/>
</svg>
