<svg width="20" height="21" viewBox="0 0 20 21" fill="none" xmlns="http://www.w3.org/2000/svg">
<path d="M6.66634 4.66667H4.99967C4.55765 4.66667 4.13372 4.84227 3.82116 5.15483C3.5086 5.46739 3.33301 5.89131 3.33301 6.33334V16.3333C3.33301 16.7754 3.5086 17.1993 3.82116 17.5119C4.13372 17.8244 4.55765 18 4.99967 18H9.74717" stroke="#BFBFBF" stroke-width="2" stroke-linecap="round" stroke-linejoin="round"/>
<path d="M15 12.1667V15.5H18.3333" stroke="#BFBFBF" stroke-width="2" stroke-linecap="round" stroke-linejoin="round"/>
<path d="M14.9994 9.66667V6.33334C14.9994 5.89131 14.8238 5.46739 14.5112 5.15483C14.1986 4.84227 13.7747 4.66667 13.3327 4.66667H11.666" stroke="#BFBFBF" stroke-width="2" stroke-linecap="round" stroke-linejoin="round"/>
<path d="M9.99935 3H8.33268C7.41221 3 6.66602 3.74619 6.66602 4.66667C6.66602 5.58714 7.41221 6.33333 8.33268 6.33333H9.99935C10.9198 6.33333 11.666 5.58714 11.666 4.66667C11.666 3.74619 10.9198 3 9.99935 3Z" stroke="#BFBFBF" stroke-width="2" stroke-linecap="round" stroke-linejoin="round"/>
<path d="M14.9994 18.8333C16.8403 18.8333 18.3327 17.341 18.3327 15.5C18.3327 13.6591 16.8403 12.1667 14.9994 12.1667C13.1584 12.1667 11.666 13.6591 11.666 15.5C11.666 17.341 13.1584 18.8333 14.9994 18.8333Z" stroke="#BFBFBF" stroke-width="2" stroke-linecap="round" stroke-linejoin="round"/>
<path d="M6.66602 9.66667H9.99935" stroke="#BFBFBF" stroke-width="2" stroke-linecap="round" stroke-linejoin="round"/>
<path d="M6.66602 13H9.16602" stroke="#BFBFBF" stroke-width="2" stroke-linecap="round" stroke-linejoin="round"/>
</svg>
