<svg width="21" height="21" viewBox="0 0 21 21" fill="none" xmlns="http://www.w3.org/2000/svg">
<g clip-path="url(#clip0_201_617)">
<path d="M10.7852 13.0002C12.1659 13.0002 13.2852 11.8809 13.2852 10.5002C13.2852 9.11952 12.1659 8.00023 10.7852 8.00023C9.40444 8.00023 8.28516 9.11952 8.28516 10.5002C8.28516 11.8809 9.40444 13.0002 10.7852 13.0002Z" stroke="#BFBFBF" stroke-width="2.70237" stroke-linecap="round" stroke-linejoin="round"/>
<path d="M16.9515 13.0002C16.8406 13.2515 16.8075 13.5303 16.8565 13.8006C16.9055 14.071 17.0344 14.3204 17.2265 14.5168L17.2765 14.5668C17.4315 14.7216 17.5544 14.9054 17.6383 15.1078C17.7221 15.3101 17.7653 15.527 17.7653 15.746C17.7653 15.965 17.7221 16.1819 17.6383 16.3842C17.5544 16.5866 17.4315 16.7704 17.2765 16.9252C17.1217 17.0801 16.9379 17.203 16.7356 17.2869C16.5332 17.3708 16.3164 17.414 16.0973 17.414C15.8783 17.414 15.6614 17.3708 15.4591 17.2869C15.2568 17.203 15.073 17.0801 14.9182 16.9252L14.8682 16.8752C14.6718 16.683 14.4223 16.5542 14.152 16.5052C13.8817 16.4561 13.6028 16.4892 13.3515 16.6002C13.105 16.7058 12.8948 16.8812 12.7468 17.1048C12.5987 17.3283 12.5192 17.5903 12.5182 17.8585V18.0002C12.5182 18.4422 12.3426 18.8661 12.03 19.1787C11.7174 19.4912 11.2935 19.6668 10.8515 19.6668C10.4095 19.6668 9.98555 19.4912 9.67299 19.1787C9.36042 18.8661 9.18483 18.4422 9.18483 18.0002V17.9252C9.17838 17.6493 9.0891 17.3818 8.92859 17.1574C8.76808 16.933 8.54378 16.7621 8.28483 16.6668C8.03348 16.5559 7.75467 16.5228 7.48434 16.5718C7.21401 16.6208 6.96456 16.7497 6.76816 16.9418L6.71816 16.9918C6.56338 17.1468 6.37956 17.2697 6.17723 17.3536C5.9749 17.4375 5.75802 17.4806 5.539 17.4806C5.31997 17.4806 5.10309 17.4375 4.90076 17.3536C4.69843 17.2697 4.51462 17.1468 4.35983 16.9918C4.20487 16.837 4.08194 16.6532 3.99806 16.4509C3.91419 16.2486 3.87102 16.0317 3.87102 15.8127C3.87102 15.5936 3.91419 15.3768 3.99806 15.1744C4.08194 14.9721 4.20487 14.7883 4.35983 14.6335L4.40983 14.5835C4.60194 14.3871 4.73082 14.1376 4.77983 13.8673C4.82885 13.597 4.79576 13.3182 4.68483 13.0668C4.57919 12.8203 4.40379 12.6101 4.18022 12.4621C3.95664 12.314 3.69465 12.2346 3.4265 12.2335H3.28483C2.8428 12.2335 2.41888 12.0579 2.10632 11.7453C1.79376 11.4328 1.61816 11.0088 1.61816 10.5668C1.61816 10.1248 1.79376 9.70087 2.10632 9.38831C2.41888 9.07575 2.8428 8.90015 3.28483 8.90015H3.35983C3.63566 8.8937 3.90317 8.80442 4.12758 8.64391C4.35199 8.48341 4.52293 8.2591 4.61816 8.00015C4.72909 7.74881 4.76218 7.46999 4.71317 7.19966C4.66415 6.92933 4.53528 6.67989 4.34316 6.48349L4.29316 6.43349C4.1382 6.2787 4.01527 6.09488 3.9314 5.89255C3.84752 5.69022 3.80435 5.47335 3.80435 5.25432C3.80435 5.0353 3.84752 4.81842 3.9314 4.61609C4.01527 4.41376 4.1382 4.22994 4.29316 4.07515C4.44795 3.92019 4.63177 3.79726 4.8341 3.71339C5.03643 3.62951 5.2533 3.58634 5.47233 3.58634C5.69136 3.58634 5.90823 3.62951 6.11056 3.71339C6.31289 3.79726 6.49671 3.92019 6.6515 4.07515L6.7015 4.12515C6.8979 4.31727 7.14734 4.44614 7.41767 4.49516C7.688 4.54417 7.96682 4.51108 8.21816 4.40015H8.28483C8.5313 4.29452 8.74151 4.11912 8.88957 3.89554C9.03764 3.67197 9.11709 3.40998 9.11816 3.14182V3.00015C9.11816 2.55813 9.29376 2.1342 9.60632 1.82164C9.91888 1.50908 10.3428 1.33349 10.7848 1.33349C11.2269 1.33349 11.6508 1.50908 11.9633 1.82164C12.2759 2.1342 12.4515 2.55813 12.4515 3.00015V3.07515C12.4526 3.34331 12.532 3.6053 12.6801 3.82888C12.8281 4.05245 13.0384 4.22785 13.2848 4.33349C13.5362 4.44442 13.815 4.47751 14.0853 4.42849C14.3556 4.37948 14.6051 4.2506 14.8015 4.05849L14.8515 4.00849C15.0063 3.85353 15.1901 3.7306 15.3924 3.64672C15.5948 3.56285 15.8116 3.51968 16.0307 3.51968C16.2497 3.51968 16.4666 3.56285 16.6689 3.64672C16.8712 3.7306 17.055 3.85353 17.2098 4.00849C17.3648 4.16328 17.4877 4.34709 17.5716 4.54942C17.6555 4.75175 17.6986 4.96863 17.6986 5.18765C17.6986 5.40668 17.6555 5.62356 17.5716 5.82589C17.4877 6.02822 17.3648 6.21203 17.2098 6.36682L17.1598 6.41682C16.9677 6.61322 16.8388 6.86267 16.7898 7.133C16.7408 7.40333 16.7739 7.68214 16.8848 7.93349V8.00015C16.9905 8.24663 17.1659 8.45684 17.3894 8.6049C17.613 8.75296 17.875 8.83242 18.1432 8.83349H18.2848C18.7269 8.83349 19.1508 9.00908 19.4633 9.32164C19.7759 9.6342 19.9515 10.0581 19.9515 10.5002C19.9515 10.9422 19.7759 11.3661 19.4633 11.6787C19.1508 11.9912 18.7269 12.1668 18.2848 12.1668H18.2098C17.9417 12.1679 17.6797 12.2473 17.4561 12.3954C17.2325 12.5435 17.0571 12.7537 16.9515 13.0002V13.0002Z" stroke="#BFBFBF" stroke-width="2.70237" stroke-linecap="round" stroke-linejoin="round"/>
</g>
<defs>
<clipPath id="clip0_201_617">
<rect width="20" height="20" fill="white" transform="translate(0.785156 0.5)"/>
</clipPath>
</defs>
</svg>
