<svg width="20" height="21" viewBox="0 0 20 21" fill="none" xmlns="http://www.w3.org/2000/svg">
<g clip-path="url(#clip0_201_585)">
<path d="M19.9766 1.9931C19.9332 1.19865 19.3014 0.566892 18.507 0.523533C16.9039 0.435955 13.767 0.52115 10.7675 2.0726C9.23841 2.86353 7.62122 4.20451 6.33063 5.7517C6.31473 5.77076 6.29927 5.78994 6.28348 5.80904L3.35458 6.03529C2.87247 6.07256 2.44306 6.32525 2.17642 6.72853L0.178213 9.75088C-0.0240137 10.0567 -0.0561621 10.4395 0.0921582 10.7748C0.240518 11.1101 0.545361 11.3438 0.907666 11.3999L3.37528 11.7821C3.36657 11.8301 3.35782 11.878 3.34981 11.926C3.26767 12.4174 3.43048 12.9226 3.7854 13.2775L7.22259 16.7147C7.51684 17.009 7.91446 17.1712 8.32188 17.1712C8.40579 17.1712 8.49016 17.1643 8.57415 17.1503C8.62212 17.1422 8.67005 17.1335 8.71802 17.1248L9.1002 19.5924C9.15634 19.9547 9.39001 20.2596 9.72524 20.4079C9.86473 20.4697 10.0124 20.5001 10.1593 20.5001C10.3657 20.5001 10.5706 20.44 10.7492 20.3219L13.7715 18.3237C14.1749 18.057 14.4275 17.6276 14.4647 17.1455L14.6909 14.2167C14.71 14.2009 14.7293 14.1854 14.7483 14.1695C16.2956 12.8789 17.6366 11.2617 18.4275 9.7326C19.979 6.73295 20.064 3.59603 19.9766 1.9931V1.9931ZM13.1252 17.3461L10.2342 19.2576L9.86169 16.8527C11.0836 16.4934 12.2923 15.918 13.4438 15.1472L13.2964 17.0552C13.2872 17.1742 13.2248 17.2803 13.1252 17.3461V17.3461ZM8.05122 15.8861L4.61399 12.4488C4.5263 12.3611 4.48575 12.2379 4.50563 12.1192C4.60782 11.5081 4.76661 10.9264 4.96317 10.3785L10.1205 15.5358C9.46239 15.7715 8.8729 15.9122 8.38091 15.9944C8.262 16.0142 8.13891 15.9738 8.05122 15.8861V15.8861ZM3.44485 7.20369L5.35282 7.05631C4.58196 8.20783 4.00657 9.41654 3.64731 10.6384L1.24247 10.266L3.15395 7.37486C3.21981 7.27525 3.32587 7.21287 3.44485 7.20369V7.20369ZM13.9978 13.2695C13.0512 14.0591 12.1323 14.6302 11.2854 15.0435L5.45641 9.21451C5.99774 8.10888 6.65841 7.18822 7.23052 6.50236C8.42485 5.07052 9.91028 3.83533 11.3059 3.11345C14.0588 1.68951 16.9593 1.61283 18.4432 1.69361C18.6396 1.70431 18.7958 1.86052 18.8065 2.05697C18.8874 3.54088 18.8106 6.44127 17.3866 9.1942C16.6648 10.5898 15.4296 12.0752 13.9978 13.2695Z" fill="#C4C4C4"/>
<path d="M13.7001 9.72825C14.4502 9.72817 15.2006 9.44263 15.7716 8.87157C16.325 8.31825 16.6297 7.58255 16.6297 6.80005C16.6297 6.01755 16.325 5.28185 15.7716 4.72853C14.6294 3.58622 12.7708 3.5863 11.6286 4.72853C11.0752 5.28185 10.7705 6.01755 10.7705 6.80005C10.7705 7.58255 11.0753 8.31825 11.6286 8.87157C12.1998 9.44275 12.9498 9.72833 13.7001 9.72825ZM12.4571 5.55712C12.7998 5.21442 13.2499 5.0431 13.7 5.0431C14.1502 5.0431 14.6003 5.21442 14.943 5.55712C15.275 5.88911 15.4578 6.33052 15.4578 6.80001C15.4578 7.2695 15.275 7.71095 14.943 8.04294C14.2577 8.72829 13.1425 8.72825 12.4571 8.04294C12.1251 7.71095 11.9423 7.26954 11.9423 6.80005C11.9423 6.33056 12.1252 5.88911 12.4571 5.55712Z" fill="#C4C4C4"/>
<path d="M0.597637 16.9819C0.747598 16.9819 0.897559 16.9248 1.01193 16.8103L2.92494 14.8973C3.15377 14.6685 3.15377 14.2975 2.92494 14.0687C2.69615 13.8398 2.32514 13.8398 2.09631 14.0687L0.18334 15.9817C-0.0454883 16.2105 -0.0454883 16.5815 0.18334 16.8103C0.297715 16.9247 0.447676 16.9819 0.597637 16.9819V16.9819Z" fill="#C4C4C4"/>
<path d="M4.67814 15.8218C4.44936 15.593 4.07834 15.593 3.84951 15.8218L0.171621 19.4998C-0.057207 19.7286 -0.057207 20.0996 0.171621 20.3284C0.286035 20.4428 0.435957 20.5 0.585918 20.5C0.735879 20.5 0.88584 20.4428 1.00021 20.3283L4.67811 16.6505C4.90697 16.4216 4.90697 16.0507 4.67814 15.8218V15.8218Z" fill="#C4C4C4"/>
<path d="M5.60221 17.575L3.6892 19.488C3.46037 19.7168 3.46037 20.0878 3.6892 20.3166C3.80361 20.4311 3.95357 20.4883 4.1035 20.4883C4.25342 20.4883 4.40342 20.4311 4.51779 20.3166L6.4308 18.4036C6.65963 18.1748 6.65963 17.8038 6.4308 17.575C6.20201 17.3462 5.831 17.3462 5.60221 17.575Z" fill="#C4C4C4"/>
</g>
<defs>
<clipPath id="clip0_201_585">
<rect width="20" height="20" fill="white" transform="translate(0 0.5)"/>
</clipPath>
</defs>
</svg>
