<svg width="20" height="21" viewBox="0 0 20 21" fill="none" xmlns="http://www.w3.org/2000/svg">
<path d="M17.4997 9.81996V6.33329C17.4997 6.11228 17.4119 5.90032 17.2556 5.74404C17.0993 5.58776 16.8874 5.49996 16.6663 5.49996H3.33301C3.11199 5.49996 2.90003 5.41216 2.74375 5.25588C2.58747 5.0996 2.49967 4.88764 2.49967 4.66663C2.49967 4.44561 2.58747 4.23365 2.74375 4.07737C2.90003 3.92109 3.11199 3.83329 3.33301 3.83329H16.6663C16.8874 3.83329 17.0993 3.7455 17.2556 3.58921C17.4119 3.43293 17.4997 3.22097 17.4997 2.99996C17.4997 2.77895 17.4119 2.56698 17.2556 2.4107C17.0993 2.25442 16.8874 2.16663 16.6663 2.16663H3.33301C2.66997 2.16663 2.03408 2.43002 1.56524 2.89886C1.0964 3.3677 0.833008 4.00358 0.833008 4.66663V16.3333C0.833008 16.9963 1.0964 17.6322 1.56524 18.1011C2.03408 18.5699 2.66997 18.8333 3.33301 18.8333H16.6663C16.8874 18.8333 17.0993 18.7455 17.2556 18.5892C17.4119 18.4329 17.4997 18.221 17.4997 18V14.5133C17.9868 14.3436 18.409 14.0265 18.7078 13.606C19.0066 13.1855 19.1671 12.6825 19.1671 12.1666C19.1671 11.6508 19.0066 11.1477 18.7078 10.7272C18.409 10.3068 17.9868 9.98967 17.4997 9.81996V9.81996ZM15.833 17.1666H3.33301C3.11199 17.1666 2.90003 17.0788 2.74375 16.9225C2.58747 16.7663 2.49967 16.5543 2.49967 16.3333V7.01329C2.76656 7.11199 3.04848 7.16386 3.33301 7.16663H15.833V9.66663H13.333C12.67 9.66663 12.0341 9.93002 11.5652 10.3989C11.0964 10.8677 10.833 11.5036 10.833 12.1666C10.833 12.8297 11.0964 13.4656 11.5652 13.9344C12.0341 14.4032 12.67 14.6666 13.333 14.6666H15.833V17.1666ZM16.6663 13H13.333C13.112 13 12.9 12.9122 12.7438 12.7559C12.5875 12.5996 12.4997 12.3876 12.4997 12.1666C12.4997 11.9456 12.5875 11.7337 12.7438 11.5774C12.9 11.4211 13.112 11.3333 13.333 11.3333H16.6663C16.8874 11.3333 17.0993 11.4211 17.2556 11.5774C17.4119 11.7337 17.4997 11.9456 17.4997 12.1666C17.4997 12.3876 17.4119 12.5996 17.2556 12.7559C17.0993 12.9122 16.8874 13 16.6663 13Z" fill="#BFBFBF"/>
</svg>
